<svg width="476" height="476" xmlns="http://www.w3.org/2000/svg" xmlns:xlink="http://www.w3.org/1999/xlink" xml:space="preserve" overflow="hidden"><defs><clipPath id="clip0"><rect x="2013" y="996" width="476" height="476"/></clipPath><clipPath id="clip1"><rect x="2073" y="1065" width="331" height="331"/></clipPath><clipPath id="clip2"><rect x="2073" y="1065" width="331" height="331"/></clipPath><clipPath id="clip3"><rect x="2073" y="1065" width="331" height="331"/></clipPath><clipPath id="clip4"><rect x="2013" y="995" width="208" height="210"/></clipPath><clipPath id="clip5"><rect x="2013" y="995" width="208" height="210"/></clipPath><clipPath id="clip6"><rect x="2013" y="995" width="208" height="210"/></clipPath><clipPath id="clip7"><rect x="2281" y="1263" width="209" height="209"/></clipPath><clipPath id="clip8"><rect x="2281" y="1263" width="209" height="209"/></clipPath><clipPath id="clip9"><rect x="2281" y="1263" width="209" height="209"/></clipPath></defs><g clip-path="url(#clip0)" transform="translate(-2013 -996)"><g clip-path="url(#clip1)"><g clip-path="url(#clip2)"><g clip-path="url(#clip3)"><path d="M2121.13 1289.44 2134.88 1289.44 2134.88 1303.19 2121.13 1303.19 2121.13 1289.44ZM2121.13 1261.94 2134.88 1261.94 2134.88 1275.69 2121.13 1275.69 2121.13 1261.94ZM2121.13 1234.44 2134.88 1234.44 2134.88 1248.19 2121.13 1248.19 2121.13 1234.44ZM2148.63 1289.44 2162.38 1289.44 2162.38 1303.19 2148.63 1303.19 2148.63 1289.44ZM2148.63 1261.94 2162.38 1261.94 2162.38 1275.69 2148.63 1275.69 2148.63 1261.94ZM2148.63 1234.44 2162.38 1234.44 2162.38 1248.19 2148.63 1248.19 2148.63 1234.44ZM2100.5 1337.56 2134.88 1337.56 2134.88 1316.94 2148.63 1316.94 2148.63 1337.56 2183 1337.56 2183 1213.81 2100.5 1213.81 2100.5 1337.56Z" fill="#60A5FA"/><path d="M2217.38 1289.44 2231.13 1289.44 2231.13 1303.19 2217.38 1303.19 2217.38 1289.44ZM2217.38 1261.94 2231.13 1261.94 2231.13 1275.69 2217.38 1275.69 2217.38 1261.94ZM2244.88 1289.44 2258.63 1289.44 2258.63 1303.19 2244.88 1303.19 2244.88 1289.44ZM2244.88 1261.94 2258.63 1261.94 2258.63 1275.69 2244.88 1275.69 2244.88 1261.94ZM2196.75 1337.56 2231.13 1337.56 2231.13 1316.94 2244.88 1316.94 2244.88 1337.56 2279.25 1337.56 2279.25 1241.31 2196.75 1241.31 2196.75 1337.56Z" fill="#60A5FA"/><path d="M2354.88 1169.12 2341.13 1169.12 2341.13 1155.38 2354.88 1155.38 2354.88 1169.12ZM2354.88 1193.19 2341.13 1193.19 2341.13 1179.44 2354.88 1179.44 2354.88 1193.19ZM2354.88 1220.69 2341.13 1220.69 2341.13 1206.94 2354.88 1206.94 2354.88 1220.69ZM2354.88 1248.19 2341.13 1248.19 2341.13 1234.44 2354.88 1234.44 2354.88 1248.19ZM2354.88 1275.69 2341.13 1275.69 2341.13 1261.94 2354.88 1261.94 2354.88 1275.69ZM2354.88 1303.19 2341.13 1303.19 2341.13 1289.44 2354.88 1289.44 2354.88 1303.19ZM2327.38 1169.12 2313.63 1169.12 2313.63 1155.38 2327.38 1155.38 2327.38 1169.12ZM2327.38 1193.19 2313.63 1193.19 2313.63 1179.44 2327.38 1179.44 2327.38 1193.19ZM2327.38 1220.69 2313.63 1220.69 2313.63 1206.94 2327.38 1206.94 2327.38 1220.69ZM2327.38 1248.19 2313.63 1248.19 2313.63 1234.44 2327.38 1234.44 2327.38 1248.19ZM2327.38 1275.69 2313.63 1275.69 2313.63 1261.94 2327.38 1261.94 2327.38 1275.69ZM2327.38 1303.19 2313.63 1303.19 2313.63 1289.44 2327.38 1289.44 2327.38 1303.19ZM2293 1131.31 2293 1337.56 2327.38 1337.56 2327.38 1316.94 2341.13 1316.94 2341.13 1337.56 2375.5 1337.56 2375.5 1141.62 2293 1131.31Z" fill="#60A5FA"/><path d="M2196.75 1172.56 2210.5 1172.56 2210.5 1186.31 2196.75 1186.31 2196.75 1172.56ZM2196.75 1145.06 2210.5 1145.06 2210.5 1158.81 2196.75 1158.81 2196.75 1145.06ZM2183 1158.81 2169.25 1158.81 2169.25 1145.06 2183 1145.06 2183 1158.81ZM2183 1186.31 2169.25 1186.31 2169.25 1172.56 2183 1172.56 2183 1186.31ZM2196.75 1227.56 2231.13 1227.56 2231.13 1124.44 2148.63 1124.44 2148.63 1200.06 2196.75 1200.06 2196.75 1227.56Z" fill="#60A5FA"/></g></g></g><g clip-path="url(#clip4)"><g clip-path="url(#clip5)"><g clip-path="url(#clip6)"><path d="M2091 1160.67 2030.33 1100 2091 1039.33 2100.1 1048.43 2055.03 1093.5 2203.67 1093.5 2203.67 1106.5 2055.03 1106.5 2100.1 1151.57 2091 1160.67Z" fill="#60A5FA"/></g></g></g><g clip-path="url(#clip7)"><g clip-path="url(#clip8)"><g clip-path="url(#clip9)"><path d="M2411 1428.67 2401.9 1419.57 2446.97 1374.5 2298.33 1374.5 2298.33 1361.5 2446.97 1361.5 2401.9 1316.43 2411 1307.33 2471.67 1368 2411 1428.67Z" fill="#60A5FA"/></g></g></g></g></svg>